<?xml version="1.0" encoding="UTF-8"?>
<svg xmlns="http://www.w3.org/2000/svg" width="320" height="320" viewBox="0 0 320 320" role="img" aria-label="Lay's Chips">
  <defs>
    <linearGradient id="bg-p-chipsnamkeenchipsandwafers1" x1="0" y1="0" x2="1" y2="1">
      <stop offset="0%" stop-color="hsl(235 25% 96%)"/>
      <stop offset="100%" stop-color="hsl(110 30% 90%)"/>
    </linearGradient>
    <pattern id="dot-p-chipsnamkeenchipsandwafers1" width="12" height="12" patternUnits="userSpaceOnUse">
      <circle cx="1.5" cy="1.5" r="1.2" fill="#F5C518" opacity="0.12"/>
    </pattern>
  </defs>
  <rect width="320" height="320" fill="url(#bg-p-chipsnamkeenchipsandwafers1)"/>
  <rect width="320" height="320" fill="url(#dot-p-chipsnamkeenchipsandwafers1)"/>
  
        <path d="M78 70 c0 -18 24 -28 82 -28 s82 10 82 28 v200 c0 22 -24 34 -82 34 s-82 -12 -82 -34 z" fill="#FFF8D6" stroke="#8A6A00" stroke-width="2"/>
        <path d="M90 78 h140 v36 H90 z" fill="#F5C518"/>
        <ellipse cx="160" cy="56" rx="22" ry="10" fill="#8A6A00"/>
        <rect x="100" y="130" width="120" height="100" rx="10" fill="#fff" opacity="0.94"/>
      
  <text x="160" y="108" text-anchor="middle" font-size="28">🍿</text>
  <text x="160" y="148" text-anchor="middle" font-family="ui-rounded, system-ui, -apple-system, sans-serif" font-size="11" font-weight="800" fill="#8A6A00" letter-spacing="0.04em">LAY'S</text>
  <text x="160" y="166" text-anchor="middle" font-family="ui-rounded, system-ui, -apple-system, sans-serif" font-size="12" font-weight="700" fill="#1a1a1a"><tspan x="160" dy="0">Chips</tspan></text>
  <text x="160" y="186" text-anchor="middle" font-family="ui-rounded, system-ui, -apple-system, sans-serif" font-size="10" font-weight="600" fill="#666">150 g · ₹244</text>
  <rect x="12" y="12" width="44" height="18" rx="4" fill="#F5C518"/>
  <text x="34" y="25" text-anchor="middle" font-family="system-ui,sans-serif" font-size="9" font-weight="800" fill="#fff">PACK</text>
</svg>
